HIERARCHY
ROOT Hips
{
	OFFSET 0.000000 0.000000 0.000000
	CHANNELS 6 Xposition Yposition Zposition Zrotation Yrotation Xrotation 
	JOINT LHipJoint
	{
		OFFSET 0.000000 0.000000 0.000000
		CHANNELS 3 Zrotation Yrotation Xrotation
		JOINT LeftUpLeg
		{
			OFFSET 1.363060 -1.794630 0.839290
			CHANNELS 3 Zrotation Yrotation Xrotation
			JOINT LeftLeg
			{
				OFFSET 2.448110 -6.726130 0.000000
				CHANNELS 3 Zrotation Yrotation Xrotation
				JOINT LeftFoot
				{
					OFFSET 2.562200 -7.039590 0.000000
					CHANNELS 3 Zrotation Yrotation Xrotation
					JOINT LeftToeBase
					{
						OFFSET 0.157640 -0.433110 2.322550
						CHANNELS 3 Zrotation Yrotation Xrotation
						End Site
						{
							OFFSET 0.000000 0.000000 0.000000
						}
					}
				}
			}
		}
	}
	JOINT RHipJoint
	{
		OFFSET 0.000000 0.000000 0.000000
		CHANNELS 3 Zrotation Yrotation Xrotation
		JOINT RightUpLeg
		{
			OFFSET -1.305520 -1.794630 0.839290
			CHANNELS 3 Zrotation Yrotation Xrotation
			JOINT RightLeg
			{
				OFFSET -2.542530 -6.985550 0.000000
				CHANNELS 3 Zrotation Yrotation Xrotation
				JOINT RightFoot
				{
					OFFSET -2.568260 -7.056230 0.000000
					CHANNELS 3 Zrotation Yrotation Xrotation
					JOINT RightToeBase
					{
						OFFSET -0.164730 -0.452590 2.363150
						CHANNELS 3 Zrotation Yrotation Xrotation
						End Site
						{
							OFFSET 0.000000 0.000000 0.000000
						}
					}
				}
			}
		}
	}
	JOINT LowerBack
	{
		OFFSET 0.000000 0.000000 0.000000
		CHANNELS 3 Zrotation Yrotation Xrotation
		JOINT Spine
		{
			OFFSET 0.028270 2.035590 -0.193380
			CHANNELS 3 Zrotation Yrotation Xrotation
			JOINT Spine1
			{
				OFFSET 0.056720 2.048850 -0.042750
				CHANNELS 3 Zrotation Yrotation Xrotation
				JOINT Neck
				{
					OFFSET 0.000000 0.000000 0.000000
					CHANNELS 3 Zrotation Yrotation Xrotation
					JOINT Neck1
					{
						OFFSET -0.054170 1.746240 0.172020
						CHANNELS 3 Zrotation Yrotation Xrotation
						JOINT Head
						{
							OFFSET 0.104070 1.761360 -0.123970
							CHANNELS 3 Zrotation Yrotation Xrotation
							End Site
							{
								OFFSET 0.000000 0.000000 0.000000
							}
						}
					}
				}
				JOINT LeftShoulder
				{
					OFFSET 0.000000 0.000000 0.000000
					CHANNELS 3 Zrotation Yrotation Xrotation
					JOINT LeftArm
					{
						OFFSET 3.362410 1.200890 -0.311210
						CHANNELS 3 Zrotation Yrotation Xrotation
						JOINT LeftForeArm
						{
							OFFSET 4.983000 -0.000000 -0.000000
							CHANNELS 3 Zrotation Yrotation Xrotation
							JOINT LeftHand
							{
								OFFSET 3.483560 -0.000000 -0.000000
								CHANNELS 3 Zrotation Yrotation Xrotation
								JOINT LeftFingerBase
								{
									OFFSET 0.000000 0.000000 0.000000
									CHANNELS 3 Zrotation Yrotation Xrotation
									JOINT LeftHandIndex1
									{
										OFFSET 0.715260 -0.000000 -0.000000
										CHANNELS 3 Zrotation Yrotation Xrotation
										End Site
										{
											OFFSET 0.000000 0.000000 0.000000
										}
									}
								}
								JOINT LThumb
								{
									OFFSET 0.000000 0.000000 0.000000
									CHANNELS 3 Zrotation Yrotation Xrotation
									End Site
									{
										OFFSET 0.000000 0.000000 0.000000
									}
								}
							}
						}
					}
				}
				JOINT RightShoulder
				{
					OFFSET 0.000000 0.000000 0.000000
					CHANNELS 3 Zrotation Yrotation Xrotation
					JOINT RightArm
					{
						OFFSET -3.136600 1.374050 -0.404650
						CHANNELS 3 Zrotation Yrotation Xrotation
						JOINT RightForeArm
						{
							OFFSET -5.241900 -0.000000 -0.000000
							CHANNELS 3 Zrotation Yrotation Xrotation
							JOINT RightHand
							{
								OFFSET -3.444170 -0.000000 -0.000000
								CHANNELS 3 Zrotation Yrotation Xrotation
								JOINT RightFingerBase
								{
									OFFSET 0.000000 0.000000 0.000000
									CHANNELS 3 Zrotation Yrotation Xrotation
									JOINT RightHandIndex1
									{
										OFFSET -0.622530 -0.000000 -0.000000
										CHANNELS 3 Zrotation Yrotation Xrotation
										End Site
										{
											OFFSET 0.000000 0.000000 0.000000
										}
									}
								}
								JOINT RThumb
								{
									OFFSET 0.000000 0.000000 0.000000
									CHANNELS 3 Zrotation Yrotation Xrotation
									End Site
									{
										OFFSET 0.000000 0.000000 0.000000
									}
								}
							}
						}
					}
				}
			}
		}
	}
}
MOTION
Frames: 11
Frame Time: 0.008333
4.824575 16.965155 -2.758942 -172.189605 22.971376 -154.062397 -14.017635 3.678717 7.116347 -8.570774 -23.286261 1.128190 0.255993 1.056537 17.027934 0.140669 -5.478050 15.296717 -2.018100 0.000001 -16.628700 4.817588 -2.491008 3.623822 13.804899 2.851980 -35.448570 5.241768 0.434788 11.386931 1.410149 7.747722 1.500942 0.761800 0.000000 -55.633500 12.911374 -1.756397 -10.707524 2.155055 -3.256976 -4.368287 -6.497539 -3.261921 1.707694 6.916884 -14.226277 -5.831880 -3.868509 -0.323360 0.552493 0.000000 0.000000 0.000000 5.944997 4.320005 -1.833752 -74.924869 -46.085852 37.447932 -177.511831 -69.584495 179.963268 4.111659 -1.999753 -0.104697 -0.342224 0.843821 -0.000000 0.000000 0.000000 0.000000 0.000000 0.000000 0.000000 10.602577 -11.816353 2.316394 62.348781 -16.759664 -16.126897 1.059846 69.735636 0.005824 2.809025 -2.512403 -0.057366 0.030197 -0.120135 0.000000 0.000000 0.000000 0.000000 0.000000 0.000000 0.000000 
4.924547 16.918071 -2.907512 -172.291666 22.704924 -154.528722 -14.169828 3.832121 6.820898 -8.685821 -21.091698 1.131649 0.321503 1.110353 18.163154 0.204758 -5.910126 16.567384 -2.333499 0.000000 -20.830400 4.824999 -2.567301 3.656057 13.632184 3.348303 -35.548354 5.027200 0.144609 13.997743 1.278834 7.475965 -0.124759 0.602600 -0.000000 -52.703399 13.105913 -1.678244 -10.628542 2.169235 -3.190539 -4.335735 -6.505395 -3.178536 1.778623 6.626566 -14.142488 -5.951992 -3.990811 -0.331549 0.516998 0.000000 0.000000 0.000000 6.006604 4.643127 -1.766701 -72.974878 -45.429499 35.287386 -177.424559 -68.231644 179.964652 3.913421 -1.997007 -0.099916 -0.328592 0.855511 -0.000000 0.000000 0.000000 0.000000 0.000000 0.000000 0.000000 10.835808 -11.838508 2.167794 61.938692 -16.087199 -15.875297 1.063094 69.583082 0.005470 2.480522 -2.072585 -0.041043 0.031925 -0.122810 0.000000 0.000000 0.000000 0.000000 0.000000 0.000000 0.000000 
5.021904 16.871271 -3.056307 -172.410067 22.498475 -155.021279 -14.325829 3.980547 6.495266 -8.786275 -18.727417 1.003762 0.389317 1.163461 19.439228 0.287310 -6.328099 17.996550 -2.684700 -0.000000 -24.638700 4.849014 -2.621970 3.659233 13.422411 3.798313 -35.644270 4.782656 -0.155381 16.846844 1.115686 7.121950 -1.971969 0.436900 0.000000 -49.790999 13.284880 -1.609736 -10.492042 2.178468 -3.130521 -4.298466 -6.521950 -3.102037 1.826421 6.339594 -14.045861 -6.086440 -4.120960 -0.340148 0.476568 0.000000 0.000000 0.000000 6.053026 4.963148 -1.690616 -70.979609 -44.558495 33.101508 -177.372867 -67.038631 179.966695 3.670754 -1.985039 -0.093480 -0.311610 0.864712 -0.000000 0.000000 0.000000 0.000000 0.000000 0.000000 0.000000 11.110947 -11.819222 2.023176 61.480805 -15.305365 -15.502322 1.069118 69.408589 0.005059 2.104435 -1.577138 -0.025514 0.034369 -0.126256 0.000000 0.000000 0.000000 0.000000 0.000000 0.000000 0.000000 
5.116339 16.825836 -3.205050 -172.539382 22.342991 -155.533352 -14.485055 4.119670 6.142658 -8.859989 -16.233913 0.745224 0.456767 1.214642 20.867130 0.388620 -6.673001 19.510452 -3.040600 0.000000 -27.615900 4.886144 -2.655175 3.635670 13.199396 4.183630 -35.675538 4.525764 -0.441934 19.739800 0.931693 6.710923 -3.906353 0.285500 0.000000 -47.163900 13.453828 -1.554625 -10.298158 2.184192 -3.081499 -4.256737 -6.549478 -3.037329 1.850366 6.065308 -13.931938 -6.233761 -4.257587 -0.349052 0.431495 0.000000 0.000000 0.000000 6.081969 5.283376 -1.604348 -68.977839 -43.471140 30.946352 -177.354968 -66.025017 179.969194 3.403813 -1.965011 -0.086074 -0.292615 0.870967 -0.000000 0.000000 0.000000 0.000000 0.000000 0.000000 0.000000 11.431601 -11.749333 1.885012 60.981857 -14.409284 -15.011413 1.078217 69.203428 0.004544 1.664360 -1.037319 -0.012180 0.037724 -0.130429 0.000000 0.000000 0.000000 0.000000 0.000000 0.000000 0.000000 
5.207507 16.782875 -3.353413 -172.672144 22.229376 -156.056153 -14.645939 4.244958 5.769583 -8.901926 -13.676464 0.368429 0.524648 1.263691 22.436395 0.511951 -6.851717 21.097757 -3.355800 0.000000 -30.132000 4.931370 -2.670621 3.588109 12.985727 4.490534 -35.592107 4.274816 -0.697410 22.501151 0.738984 6.268432 -5.811692 0.161900 0.000000 -45.058500 13.617960 -1.514688 -10.049956 2.187790 -3.046115 -4.210875 -6.589648 -2.987301 1.850901 5.811247 -13.798306 -6.392056 -4.398446 -0.358094 0.382230 0.000000 0.000000 0.000000 6.088893 5.603922 -1.506842 -67.003341 -42.172880 28.873187 -177.368128 -65.202697 179.971858 3.136900 -1.938379 -0.078487 -0.273100 0.873930 -0.000000 0.000000 0.000000 0.000000 0.000000 0.000000 0.000000 11.795960 -11.623569 1.755780 60.457873 -13.392635 -14.415043 1.090752 68.956787 0.003905 1.156266 -0.467257 -0.002440 0.042056 -0.135261 0.000000 0.000000 0.000000 0.000000 0.000000 0.000000 0.000000 
5.295114 16.743536 -3.501244 -172.796088 22.146997 -156.574132 -14.808372 4.351664 5.381565 -8.898822 -11.108483 -0.130444 0.589729 1.310306 24.154990 0.653595 -6.791923 22.652191 -3.571400 -0.000000 -31.971899 4.977072 -2.675422 3.523837 12.805650 4.721041 -35.360160 4.045750 -0.909579 24.982919 0.547532 5.809069 -7.596847 0.071100 0.000000 -43.630500 13.786652 -1.489372 -9.756640 2.191241 -3.025375 -4.161978 -6.644298 -2.953132 1.829974 5.584419 -13.643193 -6.559579 -4.540697 -0.367060 0.329255 0.000000 0.000000 0.000000 6.063080 5.927532 -1.395697 -65.079852 -40.683103 26.930795 -177.409726 -64.586907 179.974353 2.896214 -1.905283 -0.071404 -0.254655 0.873266 -0.000000 0.000000 0.000000 0.000000 0.000000 0.000000 0.000000 12.200933 -11.438329 1.636914 59.926658 -12.256256 -13.729594 1.106919 68.662813 0.003140 0.585922 0.116058 0.002003 0.047334 -0.140643 0.000000 0.000000 0.000000 0.000000 0.000000 0.000000 0.000000 
5.379136 16.708778 -3.648477 -172.900693 22.081823 -157.070344 -14.971081 4.435934 4.986244 -8.842315 -8.589487 -0.757352 0.648871 1.355446 26.027675 0.808109 -6.429818 24.062673 -3.625100 0.000000 -33.068700 5.016135 -2.676843 3.450644 12.677879 4.881506 -34.967536 3.849538 -1.072737 27.083571 0.364725 5.345486 -9.203890 0.013100 0.000000 -42.923001 13.966386 -1.477093 -9.432461 2.195764 -3.019076 -4.111541 -6.715316 -2.934598 1.791621 5.391986 -13.467129 -6.735239 -4.681275 -0.375727 0.272955 0.000000 0.000000 0.000000 5.991518 6.261722 -1.269333 -63.222847 -39.038884 25.163753 -177.476988 -64.190755 179.976324 2.708476 -1.864687 -0.065506 -0.238848 0.868715 -0.000000 0.000000 0.000000 0.000000 0.000000 0.000000 0.000000 12.644757 -11.194408 1.528216 59.406899 -11.008356 -12.972921 1.126514 68.322885 0.002262 -0.032402 0.693076 0.000249 0.053422 -0.146427 0.000000 0.000000 0.000000 0.000000 0.000000 0.000000 0.000000 
5.459814 16.679325 -3.794769 -172.987070 22.017533 -157.537854 -15.128223 4.495415 4.591908 -8.742339 -6.184006 -1.505596 0.699650 1.401677 28.047781 0.970486 -5.710878 25.240914 -3.462000 0.000000 -33.626000 5.046414 -2.679267 3.371592 12.607173 4.967876 -34.416028 3.690956 -1.187363 28.756409 0.196298 4.897134 -10.607924 -0.015800 -0.000001 -42.857999 14.150974 -1.477108 -9.088802 2.200284 -3.026083 -4.060862 -6.802523 -2.930556 1.738663 5.239612 -13.273075 -6.915917 -4.816431 -0.383834 0.214392 0.000000 0.000000 0.000000 5.869725 6.604360 -1.129585 -61.442199 -37.275054 23.602609 -177.569609 -64.024181 179.977453 2.597236 -1.812740 -0.061284 -0.226725 0.859928 -0.000000 0.000000 0.000000 0.000000 0.000000 0.000000 0.000000 13.121159 -10.898207 1.429756 58.927362 -9.662555 -12.170068 1.149198 67.938155 0.001310 -0.672575 1.247198 -0.008003 0.060052 -0.152513 0.000000 0.000000 0.000000 0.000000 0.000000 0.000000 0.000000 
5.537697 16.655666 -3.939886 -173.062334 21.934724 -157.972018 -15.272338 4.529550 4.207456 -8.615253 -3.950059 -2.371255 0.740114 1.452680 30.207640 1.134597 -4.617317 26.092947 -3.051000 0.000000 -33.778700 5.068804 -2.685091 3.289785 12.587168 4.976542 -33.719953 3.570169 -1.256572 29.990863 0.045216 4.477646 -11.805203 -0.021700 -0.000000 -43.266500 14.327811 -1.488460 -8.739433 2.202378 -3.044519 -4.011452 -6.905515 -2.938994 1.675119 5.132612 -13.066015 -7.098530 -4.942611 -0.391147 0.154711 0.000000 0.000000 0.000000 5.695648 6.955368 -0.979609 -59.741201 -35.438196 22.270535 -177.686858 -64.096191 179.977495 2.581365 -1.744408 -0.058826 -0.219015 0.846642 -0.000000 0.000000 0.000000 0.000000 0.000000 0.000000 0.000000 13.625369 -10.560060 1.340264 58.515534 -8.240210 -11.344000 1.174128 67.517648 0.000326 -1.304828 1.763612 -0.022057 0.066891 -0.158816 -0.000000 0.000000 0.000000 0.000000 0.000000 0.000000 0.000000 
5.613344 16.637963 -4.083514 -173.137172 21.812835 -158.376042 -15.395746 4.539401 3.839692 -8.480744 -1.932298 -3.343926 0.769825 1.513180 32.494454 1.294661 -3.172709 26.539377 -2.397900 0.000000 -33.652200 5.086321 -2.695049 3.206045 12.604068 4.903823 -32.892680 3.484069 -1.285138 30.803505 -0.087523 4.095372 -12.805178 -0.010900 -0.000000 -43.931800 14.481026 -1.509574 -8.393387 2.199348 -3.071164 -3.964837 -7.020912 -2.956806 1.601776 5.070393 -12.850312 -7.275878 -5.056367 -0.397477 0.096258 0.000000 0.000000 0.000000 5.477632 7.298791 -0.825264 -58.125402 -33.558769 21.171844 -177.828106 -64.403959 179.976352 2.670850 -1.652967 -0.058133 -0.215727 0.828675 -0.000000 0.000000 0.000000 0.000000 0.000000 0.000000 0.000000 14.142791 -10.191919 1.259885 58.206129 -6.769493 -10.523382 1.200303 67.069821 -0.000624 -1.893790 2.233415 -0.040213 0.073514 -0.165340 -0.000000 0.000000 0.000000 0.000000 0.000000 0.000000 0.000000 
5.687596 16.626179 -4.225479 -173.229779 21.631700 -158.751223 -15.489758 4.528060 3.497941 -8.365173 -0.169209 -4.422017 0.790009 1.587081 34.890892 1.445571 -1.440308 26.523624 -1.547500 0.000000 -33.333600 5.105902 -2.708348 3.123014 12.632892 4.745199 -31.963437 3.426753 -1.278830 31.235053 -0.202075 3.754434 -13.624599 0.010400 -0.000000 -44.643800 14.588671 -1.538695 -8.065965 2.186858 -3.102770 -3.922353 -7.147771 -2.980439 1.524850 5.055922 -12.634645 -7.446101 -5.155133 -0.402667 0.039934 0.000000 0.000000 0.000000 5.219593 7.638895 -0.670554 -56.587503 -31.698446 20.312110 -177.989487 -64.953831 179.974058 2.868963 -1.533821 -0.058703 -0.216798 0.806124 -0.000000 0.000000 0.000000 0.000000 0.000000 0.000000 0.000000 14.670703 -9.809597 1.185151 58.017649 -5.279923 -9.721213 1.226090 66.615174 -0.001514 -2.414495 2.647358 -0.060374 0.079588 -0.172030 -0.000000 0.000000 0.000000 0.000000 0.000000 0.000000 0.000000 
